<svg width="431" height="117" viewBox="0 0 431 117" fill="none" xmlns="http://www.w3.org/2000/svg">
<path d="M122.726 98.0676C122.333 96.3607 122.005 94.621 121.743 92.8484C121.547 91.0759 121.449 89.3362 121.449 87.6293V65.5709C121.449 62.1571 120.662 59.7609 119.09 58.3823C117.518 57.0036 115.65 56.3143 113.488 56.3143C111.392 56.3143 109.557 56.9051 107.985 58.0868C106.478 59.2685 105.43 61.2052 104.84 63.8968L90.7863 60.8441C92.1622 55.3952 94.9139 51.3249 99.0416 48.6332C103.169 45.876 108.28 44.4973 114.373 44.4973C121.055 44.4973 126.33 46.2699 130.195 49.8149C134.126 53.2944 136.092 58.1525 136.092 64.3892V86.4476C136.092 90.3209 136.583 94.1943 137.566 98.0676H122.726ZM105.626 99.4463C100.516 99.4463 96.6174 98.1004 93.9312 95.4088C91.3105 92.7171 90.0001 89.1721 90.0001 84.7735C90.0001 80.9002 91.2777 77.4864 93.8329 74.5321C96.4536 71.5122 100.483 69.5756 105.921 68.7221L125.674 65.4724V74.7291L111.228 77.7818C108.738 78.307 107.035 79.0948 106.117 80.1452C105.2 81.1956 104.742 82.3116 104.742 83.4933C104.742 84.7407 105.135 85.7911 105.921 86.6445C106.773 87.4323 108.017 87.8262 109.655 87.8262C111.555 87.8262 113.39 87.3995 115.159 86.5461C116.993 85.6926 118.5 84.4124 119.68 82.7055C120.859 80.933 121.449 78.7994 121.449 76.3047H124.79C124.79 81.0315 123.938 85.1346 122.235 88.614C120.597 92.0935 118.336 94.7851 115.454 96.689C112.571 98.5272 109.295 99.4463 105.626 99.4463Z" fill="white"/>
<path d="M162.312 116.778C160.216 116.778 158.25 116.647 156.416 116.384C154.581 116.121 152.78 115.76 151.011 115.301V102.204C152.386 102.597 153.893 102.959 155.531 103.287C157.169 103.615 158.905 103.779 160.74 103.779C163.754 103.779 166.047 103.287 167.619 102.302C169.257 101.317 170.306 99.9058 170.764 98.0676L183.54 45.876H198.969L184.326 98.0676C182.885 103.123 181.083 106.996 178.921 109.688C176.825 112.379 174.368 114.217 171.55 115.202C168.799 116.253 165.719 116.778 162.312 116.778ZM161.33 98.0676L146.686 45.876H162.509L175.678 98.0676H161.33Z" fill="white"/>
<path d="M229.238 99.4463C222.752 99.4463 217.543 98.1989 213.612 95.7042C209.746 93.2095 207.322 89.4018 206.339 84.2811L219.902 80.0467C220.622 82.804 221.834 84.8392 223.538 86.1522C225.241 87.3995 227.469 88.0232 230.221 88.0232C232.776 88.0232 234.578 87.6949 235.626 87.0384C236.674 86.3163 237.198 85.3315 237.198 84.0842C237.198 82.5742 236.478 81.4254 235.036 80.6376C233.66 79.8498 231.859 79.1933 229.631 78.6681C227.469 78.0772 225.143 77.4535 222.653 76.7971C220.164 76.1405 217.805 75.2215 215.577 74.0398C213.415 72.8581 211.614 71.2496 210.172 69.2145C208.796 67.1793 208.108 64.4877 208.108 61.1395C208.108 56.2158 209.943 52.2112 213.612 49.1256C217.346 46.0401 222.588 44.4973 229.336 44.4973C235.167 44.4973 239.884 45.679 243.488 48.0424C247.157 50.4058 249.712 53.8196 251.153 58.2838L237.886 62.4197C237.165 60.122 236.084 58.4479 234.643 57.3975C233.202 56.3471 231.171 55.8219 228.55 55.8219C226.191 55.8219 224.521 56.183 223.538 56.9051C222.555 57.6273 222.064 58.4479 222.064 59.367C222.064 60.6143 222.784 61.5991 224.226 62.3213C225.667 62.9777 227.534 63.5686 229.827 64.0938C232.121 64.5533 234.512 65.1442 237.002 65.8663C239.557 66.5228 241.981 67.5076 244.274 68.8206C246.567 70.0679 248.434 71.7748 249.876 73.9413C251.317 76.1077 252.038 78.9635 252.038 82.5086C252.038 87.6293 250.04 91.7324 246.043 94.8179C242.047 97.9035 236.445 99.4463 229.238 99.4463Z" fill="white"/>
<path d="M297.124 98.0676V68.1313C297.124 64.6518 296.272 62.0258 294.569 60.2533C292.931 58.4151 290.801 57.496 288.181 57.496C285.56 57.496 283.398 58.4151 281.694 60.2533C280.056 62.0258 279.237 64.6518 279.237 68.1313H276.682C276.682 63.0762 277.403 58.809 278.844 55.3295C280.286 51.7844 282.317 49.0928 284.938 47.2546C287.624 45.4164 290.769 44.4973 294.372 44.4973C297.779 44.4973 300.793 45.3179 303.413 46.9592C306.034 48.6004 308.065 50.9638 309.507 54.0494C311.014 57.1349 311.767 60.8441 311.767 65.177V98.0676H297.124ZM264.594 98.0676V27.6581H279.237V98.0676H264.594Z" fill="white"/>
<path d="M327.092 98.0676V45.876H341.735V98.0676H327.092ZM334.463 40.1644C332.301 40.1644 330.499 39.4751 329.057 38.0964C327.682 36.7178 326.994 34.9124 326.994 32.6803C326.994 30.3826 327.682 28.61 329.057 27.3627C330.499 26.0497 332.301 25.3932 334.463 25.3932C336.559 25.3932 338.328 26.0497 339.77 27.3627C341.211 28.61 341.932 30.3826 341.932 32.6803C341.932 34.9124 341.211 36.7178 339.77 38.0964C338.328 39.4751 336.559 40.1644 334.463 40.1644Z" fill="white"/>
<path d="M359.118 98.0676V45.2851C359.118 38.9171 360.757 34.1574 364.032 31.0063C367.374 27.7894 371.927 26.181 377.693 26.181C379.724 26.181 381.526 26.3123 383.098 26.5749C384.736 26.8375 386.341 27.1986 387.914 27.6581V39.7705C386.734 39.4423 385.555 39.1797 384.376 38.9827C383.262 38.7858 382.05 38.6873 380.739 38.6873C378.512 38.6873 376.776 39.2125 375.531 40.2629C374.351 41.2476 373.762 42.7576 373.762 44.7927V98.0676H359.118ZM352.632 57.9884V45.876H387.324V57.9884H352.632Z" fill="white"/>
<path d="M420.583 99.4463C414.883 99.4463 410.362 97.805 407.021 94.5225C403.745 91.24 402.107 86.3163 402.107 79.7513V35.0437L416.75 32.188V78.0772C416.75 80.7032 417.438 82.7055 418.814 84.0842C420.19 85.3972 422.122 86.0537 424.612 86.0537C425.791 86.0537 426.872 85.9552 427.855 85.7583C428.903 85.4957 429.952 85.2331 431 84.9705V98.0676C429.493 98.5272 427.888 98.8554 426.185 99.0524C424.547 99.315 422.679 99.4463 420.583 99.4463ZM395.621 57.9884V45.876H430.509V57.9884H395.621Z" fill="white"/>
<path d="M11.6287 55.4317L57.212 101.015H0L3.55856e-06 59.5912C0.307458 57.2559 2.16401 55.3455 4.3861 54.4083C6.8382 53.374 9.74685 53.5498 11.6287 55.4317Z" fill="white"/>
<path d="M20.7678 39.3132L82.4425 39.3132L82.4164 40.5651C80.3952 56.6909 68.2734 69.4225 53.0345 71.3364L82.7131 101.015H66.6354L16.1297 50.5094C14.3353 48.7149 14.1399 45.9511 15.1084 43.6054C16.0844 41.2416 18.2104 39.3132 20.7678 39.3132Z" fill="white"/>
<path d="M16.1063 21.2522L37.3585 0H49.0412C66.6289 0 81.0672 14.3337 82.5817 32.6112L82.5809 32.65L20.8302 32.65C18.2367 32.65 16.0812 30.6929 15.0837 28.2988C14.0876 25.9082 14.275 23.0835 16.1063 21.2522Z" fill="white"/>
<path d="M0 0H27.9354L11.4278 16.5076C9.58283 18.3525 6.73541 18.5369 4.32815 17.5306C2.13465 16.6136 0.305039 14.731 0 12.4293V0Z" fill="white"/>
</svg>
