<svg width="1504" height="465" viewBox="0 0 1504 465" fill="none" xmlns="http://www.w3.org/2000/svg">
<path d="M1503.47 0H1345.56L1255.66 105.515L1194.15 0.102537H982.461C1081.56 35.1717 1103.97 112.898 1157.28 145.54C1178.6 158.563 1198.29 158.768 1220.09 158.768C1165.04 148.822 1149.01 113.753 1149.01 113.753C1149.01 113.753 1160.83 128.587 1195.25 138.226C1240.15 150.804 1272.06 142.362 1294.34 201.118C1277.25 190.637 1257.31 185.74 1237.31 187.104C1168.52 192.641 1112.55 271.427 1032.52 335.31C1001.05 360.467 967.597 375.199 919.552 382.89C939.098 384.53 1000.98 380.668 1042.4 355.887C985.502 419.018 876.496 449.2 785.635 464.068H785.122H1107.53L1226.44 324.68L1307.29 464.068H1464.96L1319.73 215.337L1503.47 0Z" fill="white"/>
<path d="M0 463.929L319.608 463.929C356.059 464.118 391.915 454.686 423.557 436.584C440.433 426.871 455.801 414.746 469.175 400.592L540.354 289.369L585.392 211.848H585.018L427.931 211.848L277.504 211L300.848 171.008C306.884 160.151 315.797 151.171 326.607 145.056C337.417 138.941 349.705 135.928 362.117 136.349H624.5L703.504 0.00279284L362.288 0.00279284C325.837 -0.186459 289.981 9.24565 258.339 27.3472C241.463 37.0603 226.095 49.1856 212.72 63.3393L141.542 174.563L120.004 211L95.504 252H404.712L381.048 292.924C375.012 303.78 366.098 312.761 355.288 318.876C344.478 324.991 332.191 328.004 319.779 327.583H79.004L0 463.929Z" fill="white"/>
<path d="M1025.14 299.148C1041.5 282.941 1054.48 263.653 1063.35 242.398C1072.21 221.142 1076.77 198.341 1076.77 175.312C1076.77 66.5836 973.611 32.0271 884.048 22.8326C938.722 19.4145 989.569 32.369 1024.39 50.6555C992.917 18.0132 943.472 0.0683594 900.689 0.0683594H750.917L671.332 137.269H900.723C910.618 137.565 920.007 141.705 926.901 148.811C933.794 155.916 937.65 165.428 937.65 175.329C937.65 185.23 933.794 194.742 926.901 201.847C920.007 208.952 910.618 213.092 900.723 213.389H627.149L579.719 295.217L547.598 350.589L481.819 464H640.886L706.665 350.589H900.758C947.371 350.651 992.105 332.212 1025.14 299.319" fill="white"/>
</svg>
